<?xml version="1.0" encoding="UTF-8" standalone="no"?>
<!DOCTYPE svg PUBLIC "-//W3C//DTD SVG 1.1//EN" "http://www.w3.org/Graphics/SVG/1.1/DTD/svg11.dtd">
<svg width="100%" height="100%" viewBox="0 0 403 92" version="1.1" xmlns="http://www.w3.org/2000/svg" xmlns:xlink="http://www.w3.org/1999/xlink" xml:space="preserve" xmlns:serif="http://www.serif.com/" style="fill-rule:evenodd;clip-rule:evenodd;stroke-linejoin:round;stroke-miterlimit:1.41421;">
    <g transform="matrix(1,0,0,1,-75.1483,-33.1034)">
        <g transform="matrix(0.96765,0,0,0.711612,-18.6187,7.67862)">
            <rect x="96.902" y="35.728" width="415.689" height="128.543" style="fill:rgb(47,53,66);fill-opacity:0;"/>
        </g>
        <g transform="matrix(6.49985,0,0,5.69779,-345.219,-409.485)">
            <rect x="76.062" y="87.386" width="2.924" height="2.133" style="fill:rgb(47,53,66);fill-rule:nonzero;"/>
            <path d="M85.501,89.519L81.429,89.519L81.429,87.732L82.033,87.732L82.033,83.156L81.429,83.156L81.429,81.368L84.98,81.368L84.98,87.732L85.501,87.732L85.501,89.519Z" style="fill:rgb(47,53,66);fill-rule:nonzero;"/>
            <path d="M90.44,86.232L92.099,86.232C92.106,86.114 92.11,86.048 92.11,86.032C92.11,85.724 92.032,85.468 91.876,85.265C91.72,85.066 91.513,84.966 91.255,84.966C90.989,84.966 90.786,85.075 90.646,85.294C90.505,85.517 90.435,85.79 90.435,86.114C90.435,86.157 90.437,86.197 90.44,86.232ZM92.315,87.72L94.747,88.019C94.638,88.273 94.485,88.5 94.29,88.701C94.095,88.903 93.856,89.077 93.575,89.226C93.009,89.531 92.331,89.683 91.542,89.683C90.218,89.683 89.222,89.407 88.554,88.857C87.886,88.31 87.552,87.593 87.552,86.706C87.552,85.839 87.882,85.116 88.542,84.538C89.194,83.96 90.079,83.671 91.196,83.671C92.271,83.671 93.146,83.945 93.821,84.491C94.485,85.034 94.839,85.861 94.882,86.97L90.405,86.97C90.417,87.892 90.761,88.353 91.437,88.353C91.843,88.353 92.136,88.142 92.315,87.72Z" style="fill:rgb(47,53,66);fill-rule:nonzero;"/>
            <path d="M99.071,89.589L97.249,89.589L97.249,87.784L98.954,87.784C99.391,88.245 99.87,88.476 100.389,88.476C100.913,88.476 101.174,88.368 101.174,88.154C101.174,88.044 101.118,87.96 101.004,87.902C100.887,87.839 100.577,87.747 100.073,87.626C99.667,87.517 99.217,87.39 98.725,87.245C98.299,87.124 97.963,86.972 97.717,86.788C97.463,86.605 97.294,86.425 97.208,86.249C97.114,86.073 97.067,85.843 97.067,85.558C97.067,84.929 97.29,84.466 97.735,84.169C98.176,83.876 98.737,83.73 99.417,83.73C100.12,83.73 100.71,83.863 101.186,84.128L101.186,83.835L102.985,83.835L102.985,85.488L101.321,85.488C100.907,85.093 100.415,84.896 99.844,84.896C99.395,84.896 99.17,85.015 99.17,85.253C99.17,85.366 99.237,85.441 99.37,85.476C99.483,85.511 99.858,85.595 100.495,85.728C101.217,85.88 101.782,86.032 102.188,86.185C102.59,86.337 102.893,86.538 103.096,86.788C103.295,87.038 103.395,87.345 103.395,87.708C103.395,88.364 103.151,88.849 102.663,89.161C102.178,89.47 101.581,89.624 100.87,89.624C100.163,89.624 99.563,89.495 99.071,89.238L99.071,89.589Z" style="fill:rgb(47,53,66);fill-rule:nonzero;"/>
            <path d="M110.104,87.445L110.104,89.191C109.912,89.32 109.635,89.433 109.272,89.531C108.889,89.632 108.522,89.683 108.17,89.683C107.729,89.683 107.35,89.611 107.033,89.466C106.709,89.318 106.465,89.118 106.301,88.868C106.211,88.724 106.145,88.592 106.102,88.473C106.059,88.354 106.027,88.22 106.008,88.072C105.981,87.814 105.967,87.316 105.967,86.577L105.967,85.622L105.24,85.622L105.24,83.835L105.967,83.835L105.967,82.962L108.914,81.562L108.914,83.835L110.104,83.835L110.104,85.622L108.914,85.622L108.914,86.724C108.914,87.083 108.947,87.323 109.014,87.445C109.076,87.566 109.209,87.626 109.412,87.626C109.604,87.626 109.834,87.566 110.104,87.445Z" style="fill:rgb(47,53,66);fill-rule:nonzero;"/>
            <path d="M116.127,89.519L112.101,89.519L112.101,87.732L112.687,87.732L112.687,85.622L112.101,85.622L112.101,83.835L115.634,83.835L115.634,87.732L116.127,87.732L116.127,89.519ZM112.441,82.23C112.441,81.921 112.599,81.673 112.916,81.486C113.228,81.298 113.615,81.204 114.076,81.204C114.549,81.204 114.929,81.302 115.218,81.497C115.504,81.697 115.646,81.939 115.646,82.224C115.646,82.532 115.498,82.777 115.201,82.956C114.9,83.14 114.521,83.232 114.064,83.232C113.599,83.232 113.213,83.148 112.904,82.98C112.595,82.816 112.441,82.566 112.441,82.23Z" style="fill:rgb(47,53,66);fill-rule:nonzero;"/>
        </g>
    </g>
</svg>
