<?xml version="1.0" standalone="no"?>
<!DOCTYPE svg PUBLIC "-//W3C//DTD SVG 20010904//EN"
 "http://www.w3.org/TR/2001/REC-SVG-20010904/DTD/svg10.dtd">
<svg version="1.0" xmlns="http://www.w3.org/2000/svg"
 width="407.000000pt" height="407.000000pt" viewBox="0 0 407.000000 407.000000"
 preserveAspectRatio="xMidYMid meet">
<metadata>
Created by potrace 1.11, written by Peter Selinger 2001-2013
</metadata>
<g transform="translate(0.000000,407.000000) scale(0.100000,-0.100000)"
fill="#000000" stroke="none">
<path d="M1092 3017 l-932 -932 173 -173 172 -172 760 760 760 760 760 -760
760 -760 168 168 c92 92 167 172 167 177 0 6 -417 427 -928 938 l-927 927
-933 -933z"/>
<path d="M1092 1387 l-932 -932 173 -173 172 -172 760 760 760 760 760 -760
760 -760 170 170 169 169 -824 828 c-453 455 -871 876 -929 935 l-106 108
-933 -933z"/>
</g>
</svg>
